<?xml version="1.0" encoding="utf-8"?>
<!-- Generator: Adobe Illustrator 24.1.0, SVG Export Plug-In . SVG Version: 6.00 Build 0)  -->
<svg version="1.1" id="Layer_1" xmlns="http://www.w3.org/2000/svg" xmlns:xlink="http://www.w3.org/1999/xlink" x="0px" y="0px"
	 viewBox="0 0 34.5 24.1" style="enable-background:new 0 0 34.5 24.1;" xml:space="preserve">
<style type="text/css">
	.st0{fill:#515151;}
</style>
<path class="st0" d="M32.8,0.2H1.3c-0.6,0-1.2,0.6-1.2,1.4v20.8c0,0.7,0.5,1.4,1.2,1.4h31.5c0.6,0,1.2-0.6,1.2-1.4V1.5
	C34,0.9,33.4,0.2,32.8,0.2z M2.2,3.5l9.4,7.2L2.2,20V3.5z M17.1,12L4.4,2.4h25.2L17.1,12z M13.3,11.9l3.1,2.3
	c0.2,0.1,0.4,0.2,0.6,0.2s0.4-0.1,0.6-0.2l3.1-2.3l9.5,9.5H3.8L13.3,11.9z M22.6,10.5L32,3.4v16.5L22.6,10.5z"/>
</svg>
