<?xml version="1.0" encoding="utf-8"?>
<!-- Generator: Adobe Illustrator 24.1.0, SVG Export Plug-In . SVG Version: 6.00 Build 0)  -->
<svg version="1.1" id="Layer_1" xmlns="http://www.w3.org/2000/svg" xmlns:xlink="http://www.w3.org/1999/xlink" x="0px" y="0px"
	 viewBox="0 0 291 69" style="enable-background:new 0 0 291 69;" xml:space="preserve">
<style type="text/css">
	.st0{fill:#515151;}
	.st1{fill:#1C5BC2;}
</style>
<path class="st0" d="M26.8,31.8L22.6,39L1,1.7h8.3C15.1,11.8,21,21.8,26.8,31.8z"/>
<path class="st0" d="M34.2,39L12.4,1.7c2.8,0,5.6,0,8.4,0c5.8,10,11.7,20.1,17.5,30.1L34.2,39z"/>
<path class="st0" d="M34.2,39L55.8,1.7c-2.8,0-5.6,0-8.4,0c-5.8,10-11.5,20.1-17.3,30.1L34.2,39z"/>
<path class="st0" d="M32.9,18.9L43.1,1.7h-8.3l-6,10L32.9,18.9z"/>
<path class="st0" d="M51.5,1.7h-16v7.2h16V1.7z"/>
<path class="st0" d="M61.3,15.6h3.4l2.5,12.8h0.6l3-12.5h3.5l3,12.5H78l2.5-12.8h3.4l-3.3,15.7H75l-2.5-10.8l-2.5,10.8h-5.5
	L61.3,15.6z"/>
<path class="st0" d="M85.4,12.9V9.3h3.4v3.6H85.4z M85.4,31.3V15.6h3.4v15.7H85.4z"/>
<path class="st0" d="M102.6,18.8c-2.5-0.3-4.3-0.5-5.4-0.5c-1.1,0-1.9,0.1-2.3,0.4c-0.4,0.3-0.6,0.7-0.6,1.2c0,0.6,0.2,1,0.7,1.2
	c0.5,0.2,1.6,0.5,3.3,0.8c1.7,0.3,3,0.8,3.7,1.4c0.7,0.7,1.1,1.8,1.1,3.4c0,1.7-0.5,2.9-1.6,3.6c-1.1,0.8-2.6,1.2-4.7,1.2
	c-1.3,0-2.9-0.2-4.8-0.5l-1-0.2l0.1-2.9c2.5,0.3,4.3,0.5,5.5,0.5c1.1,0,1.9-0.1,2.4-0.4c0.5-0.3,0.7-0.7,0.7-1.4s-0.2-1.1-0.7-1.3
	c-0.4-0.2-1.5-0.5-3.2-0.8c-1.7-0.3-3-0.7-3.8-1.3c-0.8-0.6-1.2-1.7-1.2-3.3c0-1.6,0.6-2.8,1.7-3.6c1.1-0.8,2.5-1.2,4.2-1.2
	c1.4,0,3,0.2,5,0.5l1,0.2L102.6,18.8z"/>
<path class="st0" d="M108.5,31.3h-3.4V9h3.4v7.4c1.5-0.8,3-1.2,4.3-1.2c2.1,0,3.5,0.6,4.3,1.8c0.8,1.2,1.2,3.1,1.2,5.8v8.4h-3.4V23
	c0-1.7-0.2-2.9-0.5-3.6c-0.4-0.7-1.1-1.1-2.3-1.1c-1,0-2,0.2-3,0.5l-0.5,0.2L108.5,31.3L108.5,31.3z"/>
<path class="st0" d="M125.3,15.6h3.4l2.5,12.8h0.6l3-12.5h3.5l3,12.5h0.6l2.5-12.8h3.4l-3.3,15.7H139l-2.5-10.8l-2.5,10.8h-5.5
	L125.3,15.6z"/>
<path class="st0" d="M150.3,17.3c1.1-1.4,2.9-2,5.4-2s4.3,0.7,5.4,2s1.6,3.4,1.6,6.1c0,2.7-0.5,4.8-1.6,6.2
	c-1.1,1.4-2.9,2.1-5.5,2.1s-4.4-0.7-5.5-2.1c-1.1-1.4-1.6-3.4-1.6-6.2C148.6,20.7,149.2,18.6,150.3,17.3z M152.8,27.5
	c0.5,0.8,1.4,1.3,2.9,1.3s2.4-0.4,2.9-1.3c0.5-0.8,0.7-2.2,0.7-4.1c0-1.9-0.2-3.3-0.8-4.1c-0.5-0.8-1.4-1.2-2.8-1.2
	c-1.4,0-2.3,0.4-2.8,1.2c-0.5,0.8-0.8,2.2-0.8,4.1C152.1,25.3,152.3,26.6,152.8,27.5z"/>
<path class="st0" d="M164.7,31.3V15.6h3.4v1.9c1.8-1.2,3.6-1.9,5.4-2.2v3.4c-1.8,0.4-3.3,0.8-4.6,1.4l-0.7,0.3v11L164.7,31.3
	L164.7,31.3z"/>
<path class="st0" d="M178.2,31.3h-3.4V9h3.4v12.9l2-0.2l3.7-6.1h3.8l-4.5,7.4l4.8,8.4h-3.9l-3.8-6.6l-2,0.2V31.3z"/>
<path class="st1" d="M98.6,65.3c0,0-0.1,0-0.2-0.1s-0.2-0.1-0.4-0.1c-0.2-0.1-0.4-0.2-0.6-0.4c-0.1-0.2-0.2-0.4-0.2-0.6
	c0-0.1,0-0.2,0-0.3c0.1-0.1,0.1-0.2,0.1-0.4c0.1-0.2,0.1-0.4,0.1-0.6c0.1-0.1,0.1-0.2,0.1-0.3c0-0.1,0.1-0.3,0.1-0.5
	c0.1-0.8,0.5-2.2,1-4.1s0.9-3,1-3.1v-0.3c0-0.1,0-0.2,0.1-0.3c0-0.2,0.1-0.3,0.3-0.5c0.1-0.2,0.1-0.4,0.2-0.6
	c0.1-0.2,0.1-0.4,0.1-0.5c0.1-0.1,0.2-0.4,0.4-0.8c0.2-0.5,0.3-0.8,0.4-0.9c0.1-0.4,0.3-0.8,0.5-1.2c0.2-0.5,0.3-0.8,0.4-1v-0.1
	c0,0,0.1-0.2,0.3-0.6c0.2-0.4,0.3-0.7,0.4-0.9c0.1-0.3,0.5-1.1,1-2.3c0.1-0.1,0.1-0.3,0.3-0.5c0.1-0.2,0.2-0.3,0.2-0.4
	c0.1-0.1,0.2-0.2,0.4-0.2c0.2,0,0.3,0.1,0.5,0.2c0.2,0.1,0.3,0.3,0.4,0.4l0.3,0.4l-1,2c-0.3,0.5-0.5,1-0.7,1.4
	c-0.2,0.4-0.3,0.7-0.3,0.8c-0.1,0.2-0.2,0.6-0.4,1.1c-0.2,0.6-0.4,1.1-0.5,1.5c-0.1,0.3-0.2,0.6-0.3,0.9c-0.1,0.3-0.2,0.5-0.3,0.6
	c-0.1,0.3-0.2,0.5-0.2,0.6c0-0.1,1.1-0.1,3.4-0.1c0.4,0,1,0,1.9,0c0.9,0,1.5,0,1.7-0.1l1.5-0.1l1-2.9c0.2-0.7,0.6-1.9,1.2-3.8
	c0.3-0.8,0.5-1.3,0.7-1.5c0.2-0.2,0.4-0.4,0.6-0.4c0.1,0,0.2,0,0.4,0.1c0.2,0.1,0.3,0.2,0.4,0.3c0.2,0.2,0.3,0.4,0.3,0.6
	c0,0.3-0.1,0.6-0.4,1.1c-0.2,0.4-0.5,1.1-1,2.2c-0.2,0.5-0.3,0.8-0.3,0.9c0,0.4-0.1,0.7-0.3,0.9c-0.1,0.1-0.2,0.3-0.4,0.8
	c-0.2,0.4-0.3,0.7-0.3,0.8c0,0.1,0,0.3-0.1,0.5c-0.1,0.2-0.1,0.3-0.2,0.4l-0.2,0.7c-0.7,2.4-1.2,4-1.5,4.9c0,0.1,0,0.3-0.1,0.5
	c-0.1,0.2-0.1,0.4-0.1,0.5c0,0.1-0.1,0.4-0.3,0.8c-0.1,0.4-0.2,0.6-0.2,0.7c0,0.2-0.1,0.5-0.2,1c-0.3,1.3-0.4,2-0.4,2.1
	c0,0-0.1,0.1-0.2,0.1s-0.2,0-0.4-0.1c-0.1-0.1-0.3-0.1-0.3-0.1c-0.4-0.2-0.7-0.5-0.7-0.8c0-0.2,0.1-0.5,0.3-0.8
	c0.1-0.1,0.2-0.7,0.5-1.8l0.3-1c0.1-0.3,0.4-1.2,0.8-2.7c0.3-1.1,0.5-1.7,0.5-1.8v-0.3c-0.1-0.1-0.7-0.1-2-0.1
	c-1.5,0-2.8,0.1-4.1,0.2h-1.3h-0.7c-0.1,0.2-0.4,1.1-0.9,2.6c-0.5,1.5-0.7,2.5-0.8,2.9c-0.1,0.6-0.3,1.5-0.6,2.6
	C99,64,98.8,64.8,98.6,65.3z M113.8,62c-0.1-0.1-0.1-0.2-0.3-0.3c-0.1-0.1-0.2-0.2-0.2-0.3c0-0.2,0-0.4-0.1-0.5c0,0-0.1-0.1-0.1-0.3
	c0-0.3,0.1-0.8,0.4-1.5c0.3-0.7,0.7-1.5,1.1-2.4c0.1-0.1,0.3-0.3,0.4-0.6c0.2-0.3,0.3-0.4,0.4-0.5c0-0.1,0-0.1,0.1-0.2
	c0.1-0.1,0.1-0.1,0.2-0.1v-0.2c0-0.2,0.3-0.6,0.9-1.2c0.6-0.7,1.1-1.1,1.5-1.3c0.5-0.3,0.9-0.5,1.4-0.5c0.3,0,0.6,0.1,0.9,0.3
	c0.1,0.1,0.5,0.5,1.3,1.2l1,0.9l-0.5,1.4c-0.2,0.5-0.3,1-0.3,1.4c0,0.7,0.2,1.4,0.6,2c0.1,0.2,0.3,0.4,0.6,0.6
	c0.3,0.2,0.6,0.3,0.8,0.3c0.4,0.1,0.6,0.3,0.6,0.6c0,0.4-0.2,0.6-0.5,0.7c-0.1,0-0.2,0-0.3,0c-1.1,0-2.1-0.8-2.9-2.3
	c-0.1-0.1-0.2-0.3-0.3-0.6c-0.1-0.3-0.2-0.5-0.2-0.6c-0.1,0.1-0.3,0.3-0.4,0.5s-0.3,0.4-0.5,0.5c-2,2-3.6,3.1-4.8,3.1
	C114.4,62.3,114.1,62.2,113.8,62z M114.8,60.4c0,0.1,0.1,0.1,0.3,0.1c0.2,0,0.4-0.1,0.7-0.3c0.3-0.1,0.6-0.3,0.9-0.6
	c1.6-1.4,2.8-2.6,3.5-3.6l0.6-1c-0.2-0.4-0.4-0.7-0.6-0.8c-0.2-0.2-0.4-0.3-0.6-0.3c-0.4,0-1,0.5-1.8,1.5c-0.8,1-1.6,2.1-2.3,3.4
	c-0.2,0.3-0.3,0.6-0.4,1C114.9,60.1,114.8,60.3,114.8,60.4z M128.9,62.7c-0.3,0-0.5,0.1-0.6,0.1c-0.7,0-1.3-0.2-1.7-0.6
	s-0.7-1-0.7-1.8c-0.1-0.8,0.1-1.8,0.5-3.1c0.4-1.2,1-2.2,1.7-3.1c0.5-0.5,0.9-1,1.2-1.3c0.3-0.3,0.6-0.6,0.9-0.7
	c0.4-0.2,0.8-0.3,1.3-0.3c0.3,0.1,0.7,0.2,1,0.4c0.3,0.2,0.5,0.4,0.5,0.6l0.1,0.1c0.1,0,0.2,0.1,0.3,0.4c0.1,0.3,0.1,0.6,0.1,0.9
	c0,0.3,0,0.5-0.1,0.7c-0.1,0.4-0.2,0.7-0.4,0.9c-0.2,0.3-0.3,0.4-0.5,0.4c-0.2,0-0.3,0.1-0.3,0.2c0,0.1,0,0.1-0.1,0.1
	c-0.1,0-0.2-0.1-0.3-0.2c-0.1-0.1-0.2-0.2-0.3-0.4c0-0.1,0-0.2,0.1-0.5c0.1-0.3,0.1-0.6,0.2-0.9c0.1-0.2,0.1-0.4,0.1-0.6
	c0-0.4-0.1-0.6-0.4-0.6c-0.1,0-0.3,0-0.4,0.1c-0.7,0.4-1.4,1.1-2,2c-0.6,0.9-1.1,2.1-1.5,3.7c-0.1,0.4-0.1,0.7-0.1,1
	c0,0.2,0,0.3,0,0.4c0,0.1,0.1,0.2,0.1,0.2c0.1,0,0.3,0.1,0.6,0.1c0.7,0,1.2-0.1,1.5-0.3c0.6-0.3,1.3-0.7,2-1.3
	c0.1-0.1,0.2-0.1,0.3-0.3c0.1-0.1,0.3-0.3,0.4-0.3c0.1-0.2,0.3-0.3,0.4-0.4c0.1-0.1,0.3-0.1,0.5-0.1c0.2,0.1,0.4,0.2,0.6,0.3
	c0.1,0.1,0.1,0.2,0,0.3c-0.1,0-0.1,0-0.1,0.1s0,0.1,0,0.1c0,0.1-0.1,0.3-0.4,0.7c-0.3,0.4-0.7,0.7-1.1,1.1c-0.4,0.3-0.7,0.5-0.8,0.5
	c-0.1,0-0.1,0-0.2,0s-0.1,0.1-0.1,0.1c0,0.1-0.3,0.3-0.9,0.5C129.7,62.4,129.2,62.6,128.9,62.7z M142.1,55.7
	c-0.5,0.3-0.9,0.6-1.2,0.9c-0.1,0.1-0.3,0.2-0.5,0.4c-0.2,0.2-0.4,0.3-0.6,0.4c0.1,0.3,0.3,0.4,0.4,0.5l0.5,0.7c0.6,1,1.1,1.6,1.4,2
	c0.3,0.3,0.8,0.7,1.4,1c0.2,0.1,0.2,0.3,0.2,0.5c-0.1,0.2-0.2,0.3-0.3,0.4c-0.1,0-0.3,0.1-0.7,0.2c-0.3,0-0.5-0.1-0.6-0.1
	c-0.1-0.1-0.4-0.3-0.9-0.6c-0.3-0.3-0.7-0.8-1.3-1.5c-0.6-0.7-1.1-1.4-1.5-2.1c-0.1,0-0.2-0.1-0.2-0.3c-0.3,0.8-0.5,1.3-0.5,1.5
	c-0.1,0.3-0.2,0.6-0.3,1c-0.1,0.6-0.3,1-0.4,1.3c0,0.4-0.2,0.6-0.4,0.6c-0.1,0-0.3-0.1-0.5-0.2c-0.2-0.1-0.3-0.2-0.4-0.3
	c-0.1-0.1-0.1-0.3-0.1-0.4c0-0.3,0-0.6,0.1-0.9c0.1-0.3,0.2-0.7,0.3-1c0.1-0.4,0.1-0.8,0.2-1.1c0.1-0.3,0.2-0.6,0.4-0.9
	c0.1-0.4,0.3-0.9,0.4-1.2c0.5-1.4,0.8-2.4,1-3c0.2-0.5,0.4-1,0.6-1.5c0.2-0.5,0.6-1.2,1-2.3l0.3-1c0.3-0.8,0.5-1.5,0.8-1.9
	c0.1-0.1,0.2-0.3,0.5-0.8c0-0.1,0.1-0.1,0.2-0.1s0.3,0,0.4,0.1c0.1,0,0.2,0.1,0.3,0.2c0.1,0,0.2,0.1,0.3,0.4
	c0.1,0.3,0.2,0.5,0.2,0.6c0,0.2-0.1,0.4-0.2,0.7c-0.1,0.1-0.1,0.2-0.2,0.3c-0.1,0.2-0.2,0.3-0.3,0.5c-0.1,0.2-0.1,0.4-0.2,0.7
	c-0.1,0.3-0.2,0.5-0.3,0.7c-0.1,0.2-0.2,0.4-0.3,0.6c-0.1,0.2-0.2,0.4-0.2,0.5c-0.1,0.2-0.3,0.6-0.5,1.1c-0.3,0.7-0.5,1.2-0.6,1.4
	c0,0.1-0.1,0.4-0.3,1c-0.2,0.5-0.4,0.9-0.6,1.3c0.1-0.1,0.1-0.2,0.2-0.2c0.1-0.1,0.1-0.1,0.1-0.2c0-0.1,0.1-0.2,0.3-0.3
	c0.2-0.1,0.3-0.3,0.4-0.3c0.5-0.3,1.2-0.8,2-1.4c0.8-0.7,1.3-1.1,1.5-1.2c0.1-0.1,0.2-0.2,0.3-0.2c0.1,0,0.2,0,0.3,0.1
	c0.2,0.1,0.4,0.1,0.4,0.3c0.1,0.1,0.1,0.3,0.1,0.7c0.1,0.2,0,0.4-0.2,0.6c-0.2,0.2-0.5,0.5-1,0.8C142.9,55.1,142.5,55.4,142.1,55.7z
	 M150.6,51c-0.1,0.1-0.1,0.1-0.2,0.1c-0.1,0-0.2-0.1-0.4-0.2c-0.2,0-0.4-0.2-0.8-0.5c-0.3-0.3-0.4-0.5-0.4-0.6c0-0.4,0-0.8,0.2-1.2
	c0.1-0.4,0.4-0.7,0.8-0.7c0.1,0,0.1,0,0.2,0.1c0.1,0,0.3,0.1,0.5,0.2c0,0.1,0.1,0.2,0.2,0.5c0.1,0.2,0.2,0.5,0.3,0.7
	c0.1,0.2,0.1,0.4,0.1,0.6C151.2,50.4,151,50.7,150.6,51z M147.4,62.1c-0.3,0-0.5-0.2-0.8-0.5c-0.2-0.4-0.3-0.7-0.4-1.1
	c0.1-0.7,0.1-1.2,0.2-1.5c0.1-0.7,0.4-1.6,0.7-2.8c0.3-1.2,0.5-1.9,0.6-2c0.1-0.1,0.1-0.1,0.3-0.1s0.2,0,0.4,0.1
	c0.1,0.1,0.2,0.2,0.3,0.3c0.1,0.2,0.2,0.4,0.2,0.7c0,0.4-0.2,1.2-0.6,2.5c-0.3,0.9-0.4,1.6-0.5,2c-0.1,0.4-0.1,0.8-0.1,1.3
	c0,0.1-0.1,0.4-0.1,0.7c0,0.3-0.1,0.5-0.1,0.6C147.6,62.1,147.5,62.1,147.4,62.1z M152.5,61.8c-0.1,0-0.2,0-0.3-0.1
	c-0.1-0.1-0.2-0.2-0.3-0.3c-0.1-0.1-0.2-0.3-0.3-0.4c0-0.1,0-0.5,0-1c0-0.6,0.1-1.2,0.3-1.9c0.2-0.7,0.7-1.7,1.3-3l0.9-2
	c0.1-0.1,0.2-0.3,0.4-0.6h0.3c0.1,0,0.3,0.1,0.4,0.3c0.2,0.2,0.3,0.4,0.4,0.6c0,0.3,0,0.6-0.1,0.8c-0.1,0.3-0.3,0.6-0.6,1.1
	c-0.1,0.2-0.3,0.6-0.5,1.1c-0.2,0.5-0.3,0.9-0.4,1.2c-0.1,0.1-0.1,0.3-0.2,0.5c-0.1,0.2-0.2,0.5-0.3,0.7l-0.1,0.6l1.9-1.9
	c0.8-0.8,1.5-1.4,2-1.8c0.5-0.4,1-0.6,1.3-0.6c0.4,0,0.7,0.3,1,0.8c0.2,0.3,0.3,0.5,0.3,0.7c0.1,0.1,0.1,0.4,0.1,0.7
	c0,0.1,0,0.4-0.1,1v1.7c0.3-0.1,0.5-0.1,0.7-0.2c0.2-0.1,0.4-0.2,0.5-0.2c0.4-0.2,0.9-0.3,1.4-0.3c0,0.3-0.2,0.7-0.4,1
	c-0.2,0.4-0.5,0.7-0.9,1c-0.4,0.2-0.7,0.4-1,0.4c-0.3,0-0.5-0.1-0.8-0.4c-0.3-0.2-0.5-0.5-0.6-0.8c-0.1-0.2-0.1-0.5-0.1-0.8
	c0-0.3,0-0.7,0-1.3v-1c0-0.2-0.1-0.3-0.2-0.3c-0.1,0-0.3,0.1-0.5,0.3c-0.4,0.3-1,0.9-1.8,1.8c-0.8,0.8-1.5,1.5-2.1,2
	C153.2,61.5,152.8,61.8,152.5,61.8z M171.8,54.5c0.1,0.2,0.2,0.4,0.2,0.6c0,0.3-0.1,0.6-0.3,0.8c-0.1,0.1-0.2,0.2-0.3,0.4
	c-0.1,0.2-0.3,0.4-0.4,0.6s-0.2,0.4-0.3,0.7c-0.1,0.4-0.3,1.3-0.7,2.7l-0.3,1.1l-0.4,1.7c-0.8,2.9-1.7,4.6-2.5,5
	c-0.2,0.1-0.5,0.1-0.7,0.1c-0.4,0-0.8-0.1-1.3-0.4c-0.4-0.3-0.8-0.6-1.1-1.1c-0.2-0.3-0.4-0.7-0.6-1.3c-0.2-0.6-0.2-0.9-0.1-1
	c0,0,0.1-0.1,0.2-0.1c0.1,0,0.3,0,0.4,0.1c0.1,0.1,0.2,0.2,0.3,0.3c0.1,0.2,0.2,0.5,0.5,0.8c0.2,0.3,0.4,0.5,0.5,0.5
	c0.3,0.1,0.6,0.2,0.8,0.2c0.2,0,0.3-0.1,0.5-0.2c0.3-0.2,0.6-0.6,0.8-1c0.2-0.4,0.5-1,0.7-1.8l0.2-0.8c0.4-1.6,0.8-2.7,1-3.2
	c0.1-0.3,0.2-0.5,0.3-0.7l-0.5,0.4c-0.2,0.2-0.5,0.4-0.7,0.6c-0.2,0.2-0.5,0.3-0.8,0.4c-0.1,0.2-0.5,0.3-1,0.3
	c-0.4,0-0.7-0.1-1.1-0.2c-0.4-0.2-0.6-0.4-0.7-0.5c-0.1-0.1-0.2-0.4-0.4-0.8c-0.1-0.1-0.1-0.4-0.1-0.7c0-0.8,0.2-1.7,0.6-2.6
	c0.4-0.7,0.9-1.5,1.7-2.3c0.8-0.8,1.4-1.3,2-1.5c0.2-0.1,0.4-0.2,0.6-0.2c0.2,0,0.4,0,0.6,0.1c0.3,0,0.5,0.1,0.7,0.2
	s0.4,0.3,0.8,0.6C171.3,53.5,171.6,54,171.8,54.5z M168.7,57.3c0.3-0.4,0.5-0.9,0.7-1.4c0.1-0.5,0.2-1,0.1-1.5
	c0-0.3-0.1-0.4-0.1-0.5c-0.1-0.1-0.2-0.2-0.3-0.2c-0.4,0-0.8,0.2-1.2,0.5c-0.5,0.3-0.9,0.8-1.3,1.3c-0.3,0.4-0.5,0.8-0.7,1.3
	c-0.2,0.6-0.3,1.2-0.3,1.8c0,0.4,0.1,0.6,0.2,0.7c0.6,0,1.1-0.2,1.6-0.5C167.8,58.6,168.3,58,168.7,57.3z M184,62.9
	c-0.3-0.1-0.5-0.2-0.6-0.3s-0.4-0.3-0.7-0.5c-0.3-0.4-0.6-0.9-0.7-1.2c-0.1-0.4-0.1-1-0.1-1.8c0-0.4,0.3-1.7,0.8-3.7
	c0,0.1,0-0.1,0.2-0.8c0.1-0.2,0-0.3-0.2-0.4c-0.2-0.1-0.5-0.1-0.9-0.1c-0.3,0-0.5,0-0.6-0.1c-0.1,0-0.1,0-0.1-0.1c0,0,0-0.1,0-0.1
	c0-0.1,0-0.2-0.1-0.3c0,0,0,0,0-0.1c0-0.1,0-0.2,0.1-0.3c0.1-0.1,0.2-0.2,0.4-0.2c0.1,0,0.3,0,0.6-0.1s0.7-0.1,1-0.2
	c0.3-0.1,0.5-0.3,0.7-0.5c0.2-0.6,0.6-1.3,0.9-2.1c0.4-0.8,0.6-1.3,0.8-1.4c0.3-0.1,0.5-0.2,0.6-0.2s0.2,0,0.3,0.1
	c0.1,0.1,0.2,0.2,0.3,0.4c0,0,0.1,0.1,0.1,0.2c0.1,0.1,0.1,0.2,0.1,0.3c0,0.1-0.1,0.4-0.2,0.7c-0.1,0.3-0.4,0.8-0.8,1.6l-0.4,0.7
	c0.1,0,0.2,0,0.4,0c0.2,0,0.4,0,0.5,0c0.4-0.1,0.8-0.1,1.1-0.1c0.2,0,0.3,0,0.4,0c0.4,0,0.7,0.1,0.9,0.3c0.2,0.1,0.3,0.4,0.4,0.8
	c0,0.2,0,0.3-0.1,0.4s-0.4,0.1-1,0.1c-2.2,0.1-3.3,0.2-3.3,0.3c-0.1,0.1-0.2,0.4-0.4,1c-0.2,0.6-0.4,1.2-0.5,1.7
	c-0.2,1.1-0.4,2.1-0.4,3c0,0.8,0.1,1.3,0.3,1.6c0.1,0.1,0.3,0.1,0.5,0.1c0.3,0,0.5,0,0.8-0.1c0.3-0.1,0.6-0.3,0.8-0.4
	c0.3-0.3,0.6-0.4,0.8-0.4c0.1,0,0.2,0,0.3,0.1c0.1,0.1,0.1,0.1,0.1,0.2c0,0.2-0.1,0.5-0.3,0.8c-0.3,0.4-0.7,0.8-1.1,1.1
	c-0.5,0.3-0.9,0.4-1.3,0.4C184.3,63,184.1,63,184,62.9z M199.6,62.4c-0.2,0.1-0.4,0.1-0.6,0.1c-0.1,0-0.3,0-0.4-0.1
	c-0.1-0.1-0.3-0.2-0.4-0.4c-0.1-0.1-0.2-0.2-0.3-0.4c-0.1-0.2-0.2-0.4-0.3-0.6c-0.1-0.2-0.1-0.5-0.1-0.9c0-0.3,0-0.5,0-0.7
	c0-0.2,0-0.3,0.1-0.4l0.1-0.8c0.1-0.6,0.2-1.1,0.2-1.5c0-0.5-0.1-0.8-0.2-0.8c-0.3-0.1-0.9,0.4-1.8,1.3c-1,0.9-2,2-3.1,3.2l-0.5,0.7
	c0,0.1-0.1,0.2-0.3,0.4c-0.2,0.2-0.3,0.3-0.3,0.3c-0.2,0-0.5-0.1-0.8-0.3c-0.4-0.2-0.5-0.4-0.6-0.6c0-0.1,0.1-0.6,0.4-1.5
	c0.3-0.9,0.5-1.7,0.7-2.2l1.2-3.6c0.1-0.5,0.4-1.2,0.8-2.1l0.5-1.4l0.3-0.8l1.3-3.4v-0.1c0-0.3,0.1-0.5,0.2-0.7l0.4,0
	c0,0,0.1,0,0.2,0.1c0.1,0.1,0.3,0.3,0.4,0.4c0.1,0.1,0.2,0.3,0.2,0.4c0.1,0.1,0.1,0.3,0.1,0.4c0,0.4-0.2,1.2-0.6,2.2
	c-0.2,0.2-0.4,0.8-0.8,1.8c-0.2,0.5-0.3,0.9-0.4,1.1c-0.2,0.4-0.6,1.3-1.2,2.5c-0.5,1.3-0.9,2.3-1.1,3.1c-0.1,0.4-0.2,0.6-0.2,0.8
	c0,0.1,0,0.1,0.1,0.1c0.1,0,0.3-0.2,0.6-0.5c1.2-1.3,2.1-2.2,2.8-2.8c0.7-0.6,1.3-0.9,1.7-0.9c0.2,0.1,0.5,0.3,0.8,0.6
	c0.3,0.4,0.6,0.7,0.7,1c0.1,0.4,0.2,0.8,0.2,1.1c0,0.3,0,0.9-0.1,1.7l-0.1,0.6c-0.1,0.9-0.2,1.5-0.2,1.6c0,0.2,0,0.3,0.1,0.4
	c0.1,0.1,0.2,0.2,0.3,0.3c0.3,0.2,0.4,0.4,0.4,0.6C199.9,62.1,199.8,62.2,199.6,62.4z M204.5,62.3c-0.6-0.2-1-0.6-1.3-0.9
	c-0.2-0.4-0.4-0.9-0.4-1.6c0-0.3,0-0.7,0.1-1.2l0.1-1c0-0.2,0-0.3-0.1-0.4c0-0.1-0.1-0.2-0.3-0.3c0,0-0.1-0.1-0.3-0.3
	c-0.1-0.1-0.2-0.3-0.2-0.4l0-0.1c0-0.1,0-0.3,0.1-0.4c0.1-0.1,0.1-0.2,0.2-0.2s0.1,0,0.2,0c0.1,0,0.2,0,0.3,0c0.3,0,0.4,0.1,0.4,0.2
	c0.1,0.1,0.2,0.2,0.4,0.1c0.2-0.1,0.4-0.4,0.5-0.7c0.3-0.4,0.6-0.8,1.1-1.3c0.5-0.5,1-0.8,1.3-1c0.1-0.1,0.3-0.1,0.6-0.2
	c0.3-0.1,0.6-0.1,0.8-0.1c0.3,0,0.6,0.1,0.9,0.2c0.3,0.1,0.5,0.4,0.8,0.6c0.4,0.3,0.5,0.7,0.5,1.2c0,0.4-0.1,0.8-0.3,1.2
	c-0.1,0.3-0.4,0.6-0.9,1.1c-0.5,0.4-1,0.7-1.4,0.9c-0.5,0.1-1.1,0.2-1.8,0.2c-0.4,0-0.7,0-0.9-0.1c-0.2-0.1-0.4,0.4-0.5,1.5
	c0,0.1,0,0.3,0,0.5c0,0.3,0,0.6,0.1,0.8c0,0,0.1,0.1,0.2,0.2c0.1,0.1,0.3,0.2,0.4,0.3c0.2,0.1,0.3,0.1,0.5,0.1c0.2,0,0.3,0,0.4-0.1
	c0.2-0.1,0.4-0.2,0.6-0.3c0.2-0.2,0.4-0.4,0.8-0.8c0.3-0.3,0.5-0.5,0.6-0.6c0.1-0.2,0.3-0.3,0.6-0.3c0.1,0,0.2,0,0.4,0.1
	c0.2,0.1,0.3,0.3,0.3,0.4s-0.1,0.4-0.3,0.8c-0.1,0.2-0.3,0.4-0.7,0.8c-0.4,0.3-0.7,0.6-1,0.8c-0.6,0.3-1.2,0.5-1.7,0.5
	C205.4,62.6,205,62.5,204.5,62.3z M206.1,56.6c0.2,0,0.5-0.1,0.8-0.1c0.4-0.1,0.6-0.2,0.9-0.4c0.2-0.2,0.5-0.6,0.8-1
	c0.1-0.1,0.1-0.3,0.1-0.4c0-0.3-0.1-0.5-0.2-0.6c-0.1-0.1-0.3-0.2-0.4-0.2c-0.3,0-0.5,0.1-0.8,0.3c-0.2,0.1-0.5,0.3-0.8,0.6
	c-0.4,0.4-0.7,0.7-0.9,1.1c-0.3,0.3-0.3,0.5-0.3,0.6c0,0.1,0.1,0.1,0.3,0.1C205.8,56.6,206,56.6,206.1,56.6z M220.4,63.9
	c-0.5-0.3-0.9-0.8-1.2-1.3c-0.3-0.6-0.4-1.2-0.4-1.8c0-2.2,0.4-4.5,1.1-7c0.3-1,0.7-2,1.2-3.1c0.5-1.1,0.9-1.9,1.2-2.5
	c0.5-0.9,1.1-1.6,1.7-2.3c0.6-0.7,1.1-1.1,1.5-1.3c0.2-0.1,0.6-0.3,1-0.4c0.4-0.1,0.9-0.2,1.3-0.2c0.4,0,0.7,0,1,0.1
	c0.4,0.1,0.9,0.3,1.3,0.5c0.4,0.2,0.7,0.3,0.9,0.5c0.1,0.1,0.2,0.2,0.3,0.4c0.1,0.1,0.2,0.3,0.3,0.4c0.1,0.1,0.1,0.2,0.1,0.4
	c0,0.2-0.1,0.4-0.3,0.7c-0.2,0.3-0.3,0.4-0.5,0.4c-0.1,0-0.2-0.1-0.3-0.2c-0.2-0.3-0.4-0.5-0.6-0.6c-0.2-0.1-0.4-0.3-0.6-0.4
	c-0.2-0.1-0.4-0.2-0.4-0.2c-0.2-0.1-0.6-0.2-1-0.2c-0.3,0-0.7,0.1-1,0.2c-0.3,0.1-0.6,0.2-0.9,0.4c-0.3,0.3-0.7,0.7-1.2,1.3
	c-0.5,0.6-0.9,1.1-1.1,1.6c-1.1,2-1.9,3.8-2.4,5.5c-0.1,0.5-0.3,1.2-0.5,2c-0.2,0.8-0.3,1.4-0.4,1.8c-0.1,0.7-0.2,1.3-0.2,1.9
	c0,0.7,0.1,1.2,0.3,1.6c0.2,0.4,0.6,0.5,1.2,0.5c0.4,0,0.8-0.1,1.4-0.3c0.6-0.1,1.3-0.4,2.1-1.1c0.8-0.7,1.4-1.4,2-2.2
	c0.8-1.6,1.3-2.6,1.3-3.2c0-0.4-0.2-0.6-0.5-0.6c-0.4,0-0.8-0.1-1.4-0.1c-0.4,0-0.7,0-0.9,0c-0.2,0-0.4-0.1-0.6-0.2
	c-0.1-0.2-0.2-0.4-0.2-0.5c0-0.2,0.1-0.5,0.4-0.7c0.3-0.1,0.8-0.2,1.5-0.2c1.1,0,1.9,0.1,2.5,0.4c0.6,0.3,0.9,0.8,0.9,1.7
	c0,0.4,0,0.8-0.1,1.1c-0.2,0.7-0.7,1.8-1.7,3.3c-0.4,0.6-1.1,1.3-1.9,2c-0.8,0.7-1.5,1.1-2,1.3c-1,0.5-1.9,0.7-2.8,0.7
	C221.3,64.3,220.8,64.1,220.4,63.9z M232.6,62c-0.1-0.1-0.3-0.2-0.3-0.3c-0.1-0.1-0.1-0.2-0.1-0.4c0-0.2,0-0.3,0-0.4
	c0.1-0.6,0.2-1.4,0.4-2.2l0.1-0.6c0.1-0.5,0.4-1.4,1-2.9c0.6-1.5,1.1-2.5,1.5-3.1c0.1-0.1,0.3-0.1,0.5-0.1c0.2,0,0.4,0.1,0.6,0.3
	c0.1,0.1,0.2,0.2,0.2,0.4c0,0.2-0.1,0.5-0.2,0.8c-0.1,0.4-0.4,0.9-0.7,1.6c-0.1,0.1-0.2,0.4-0.4,0.8c-0.2,0.4-0.3,0.7-0.3,0.7
	c0,0,0,0.1,0,0.1c0,0,0.1,0,0.1,0c0,0,0.1-0.1,0.1-0.1c0.2-0.4,0.7-0.8,1.5-1.5c0.8-0.6,1.4-1,1.7-1.1c0.1-0.1,0.3-0.1,0.5-0.2
	c0.2-0.1,0.3-0.1,0.4-0.2c0.3-0.1,0.7-0.2,1.1-0.2c0.3,0,0.5,0,0.7,0.1c0.2,0.1,0.3,0.2,0.4,0.4c0,0.1,0.1,0.2,0.1,0.3
	c0.1,0.1,0.2,0.1,0.2,0.1c0.1,0,0.1,0,0.1,0.1c0,0,0,0.1,0,0.1c0,0.1-0.1,0.2-0.2,0.3c-0.1,0-0.4,0-0.8,0.1c-0.2,0-0.4,0.1-0.6,0.1
	s-0.4,0.2-0.7,0.3c-1,0.6-1.8,1.1-2.4,1.4c-0.5,0.3-1,0.8-1.5,1.4c-0.2,0.2-0.5,0.6-0.8,1.2c-0.1,0.1-0.3,0.5-0.4,1
	c-0.1,0.5-0.2,0.9-0.2,1c0,0.1-0.1,0.2-0.1,0.3c-0.1,0.1-0.1,0.3-0.3,0.4c-0.2,0.3-0.4,0.4-0.6,0.4C233.1,62.5,232.9,62.3,232.6,62z
	 M244.1,62.6c-0.2,0-0.4,0-0.5-0.1c-0.1-0.1-0.3-0.2-0.6-0.4c-0.6-0.7-0.9-1.3-0.9-1.8c0-0.1,0-0.2,0-0.3c0.1-0.1,0.1-0.3,0.1-0.4
	c0-0.1,0-0.2,0-0.3c-0.1-0.1-0.1-0.1-0.1-0.1c0,0,0-0.1,0.1-0.1c0,0,0.1-0.1,0.1-0.1c0.1,0,0.1-0.1,0.1-0.3c0-0.1,0-0.5,0.2-1
	c0.2-0.5,0.4-1,0.7-1.4c0.2-0.3,0.5-0.8,0.9-1.3c0.4-0.5,0.8-0.9,1.1-1.1c0.4-0.4,0.8-0.7,1.2-0.9c0.4-0.2,0.7-0.3,1.2-0.4
	c0.4-0.1,0.6-0.1,0.8-0.1c0.1,0,0.2,0,0.3,0.1c0.1,0.1,0.3,0.2,0.4,0.3c0.5,0.2,0.8,0.5,1,0.9c0.2,0.3,0.3,0.9,0.3,1.6
	c0,1.2-0.5,2.5-1.5,3.9c-0.4,0.6-0.8,1.1-1.2,1.4c-0.4,0.3-0.9,0.7-1.5,1c-0.4,0.3-0.8,0.5-1.1,0.6
	C244.9,62.5,244.5,62.6,244.1,62.6z M246.8,59.6c0.4-0.5,0.8-1,1.1-1.4c0.3-0.4,0.5-1,0.8-1.7c0.1-0.3,0.1-0.7,0.1-1.1
	c0-0.6-0.1-0.9-0.2-1c-0.2-0.1-0.4-0.1-0.6-0.1c-0.4,0-0.8,0.2-1.3,0.6c-0.5,0.5-1,1-1.5,1.7c-0.4,0.7-0.9,1.5-1.3,2.5
	c-0.2,0.4-0.3,0.8-0.3,1.1c0,0.3,0.1,0.5,0.2,0.7c0.1,0.2,0.3,0.3,0.6,0.3C245,61.1,245.8,60.6,246.8,59.6z M258.8,62.8
	c-0.4-0.2-0.7-0.6-0.9-1c-0.1-0.5-0.2-1.2-0.2-2.2v-1.3c-0.1,0.1-0.2,0.2-0.3,0.4c-0.2,0.2-0.4,0.5-0.6,0.9
	c-0.4,0.7-0.8,1.4-1.2,1.9c-0.4,0.5-0.8,0.8-1,0.9c-0.2,0.1-0.5,0-1-0.1c-0.4-0.2-0.7-0.4-0.8-0.6c0-0.1-0.1-0.4-0.1-0.7
	c0-0.5,0-1.1,0.1-1.7c0.1-0.6,0.2-1,0.3-1.2c0,0,0-0.1,0-0.2c0-0.1,0-0.2,0-0.2c0.1-0.4,0.4-1.2,0.8-2.4c0.4-1.2,0.6-1.9,0.7-2.2
	c0-0.1,0-0.3,0.1-0.4c0.1-0.2,0.1-0.3,0.1-0.4s0-0.2,0.1-0.3c0.1-0.1,0.1-0.2,0.2-0.3c0.1-0.1,0.2-0.1,0.3-0.1
	c0.1,0,0.2,0.1,0.4,0.2c0.1,0.1,0.2,0.2,0.3,0.2c0.1,0.1,0.2,0.2,0.3,0.3c0.1,0.1,0.1,0.2,0.1,0.3c0,0.1,0,0.3-0.1,0.5
	c-0.1,0.2-0.2,0.5-0.3,0.8c-0.3,0.6-0.5,1.2-0.8,1.9c-0.2,0.7-0.4,1.2-0.5,1.5c0,0.1,0,0.2-0.1,0.4c0,0.1-0.1,0.2-0.1,0.3
	c-0.1,0.1-0.1,0.2-0.1,0.4c0,0.1,0,0.2-0.1,0.4c-0.1,0.2-0.1,0.4-0.1,0.6c0,0.1,0,0.1,0,0.3c0,0.3,0.1,0.4,0.3,0.4
	c0.1,0,0.1,0,0.2,0c0.1,0,0.1,0,0.1-0.1c0.1-0.1,0.2-0.2,0.4-0.4c0.2-0.2,0.4-0.4,0.5-0.6c0.1-0.2,0.2-0.4,0.3-0.5
	c0.1-0.1,0.2-0.3,0.2-0.4c0-0.1,0.1-0.3,0.3-0.6c0.2-0.3,0.4-0.5,0.5-0.7l0.7-1.3c0.1-0.2,0.2-0.4,0.4-0.6c0-0.1,0.1-0.2,0.2-0.3
	c0.1-0.2,0.2-0.3,0.3-0.5c0,0,0-0.1,0.1-0.2c0-0.1,0.1-0.1,0.2-0.2c0.1,0,0.2-0.1,0.3-0.1c0.2,0,0.4,0,0.5,0.1
	c0.1,0,0.1,0.2,0.2,0.4c0.1,0.1,0.2,0.3,0.2,0.4c0,0.1,0.1,0.3,0.1,0.4c-0.1,0.1-0.1,0.1-0.1,0.2c0,0.1,0,0.2,0,0.2
	c0,0.1-0.1,0.3-0.1,0.6c-0.1,0.3-0.1,0.5-0.3,0.8c-0.2,0.6-0.3,1.3-0.4,2c-0.1,0.7-0.1,1.3-0.1,1.8c0,0.6,0.1,1,0.2,1
	c0.2,0,0.8-0.7,1.7-2.1c0.1-0.1,0.3-0.3,0.6-0.7c0.3-0.4,0.5-0.7,0.6-0.9c0-0.1,0.1-0.3,0.3-0.6c0.3-0.5,0.4-0.9,0.4-1.1
	c0,0,0.1-0.2,0.3-0.6c0.2-0.4,0.4-0.7,0.6-1.1c0.1-0.3,0.2-0.5,0.4-0.7c0.2-0.2,0.4-0.3,0.6-0.3c0.3,0,0.4,0.2,0.4,0.6
	c-0.1,0.9-0.5,2-1.1,3.3c-0.6,1.3-1.2,2.5-1.9,3.6c-0.2,0.1-0.3,0.3-0.4,0.4c-0.1,0.2-0.2,0.3-0.2,0.4c0,0.1-0.2,0.2-0.5,0.5
	c-0.3,0.3-0.7,0.5-1,0.7c-0.3,0.2-0.5,0.3-0.8,0.3C259.3,63,259.1,63,258.8,62.8z M269,64.4c-0.5-0.1-0.9-0.3-1.1-0.5
	c-0.2-0.2-0.3-0.6-0.3-1.1c0-0.1,0-0.4,0.1-0.7c0.1-0.3,0.1-0.5,0.2-0.8c0.1-0.4,0.2-0.7,0.3-0.7c0,0,0-0.1,0.1-0.1
	c0-0.1,0-0.1-0.1-0.1c0-0.2,0.1-0.6,0.3-1c0-0.1,0.1-0.3,0.1-0.4c0.1-0.1,0.1-0.2,0.1-0.3c0,0-0.1-0.1-0.1-0.2c0-0.1,0-0.2,0.1-0.3
	c0.1-0.1,0.2-0.2,0.2-0.3c0.1-0.1,0.1-0.1,0-0.2c0-0.1,0.1-0.5,0.5-1.3c0.2-0.5,0.4-0.8,0.4-0.8c0-0.1,0.1-0.4,0.4-1
	c0.3-0.6,0.5-1.1,0.7-1.4c0.2-0.1,0.1-0.2-0.2-0.2c-0.3,0-0.7,0-1.1,0c-0.6,0-1.1,0-1.4-0.1c-0.3-0.1-0.6-0.1-0.8-0.3
	c-0.2-0.2-0.3-0.4-0.3-0.5c0-0.2,0.2-0.3,0.7-0.3c0.5,0,1.2-0.1,2.2-0.2l1.4-0.1l0.1-0.5c0.3-0.4,0.4-0.8,0.6-1
	c0.1-0.3,0.2-0.6,0.3-0.9c0.1-0.1,0.1-0.3,0.3-0.6c0.1-0.3,0.2-0.6,0.3-0.9c0.2-0.4,0.4-0.7,0.6-1c0.2-0.3,0.3-0.5,0.3-0.6
	c0.2-0.2,0.3-0.3,0.4-0.3c0.1,0,0.3,0.1,0.6,0.3c0.5,0.3,0.7,0.6,0.7,0.8c0,0.1-0.1,0.2-0.2,0.3c-0.1,0.1-0.2,0.4-0.3,0.9
	c-0.1,0.2-0.3,0.4-0.4,0.7c-0.1,0.3-0.3,0.6-0.3,0.8c-0.1,0.3-0.3,0.6-0.4,0.9c-0.1,0.2-0.2,0.4-0.3,0.4c0,0.1,0.1,0.2,0.1,0.2
	s0.1,0.1,0.3,0.1c0.1,0,0.2,0,0.3,0c0.1,0,0.3,0,0.5,0c0.2,0,0.3,0,0.5-0.1c0.1,0,0.3-0.1,0.4-0.1c0.1,0,0.2,0,0.3,0.1
	c0.2,0.2,0.3,0.5,0.3,0.8c0,0.2-0.1,0.4-0.3,0.4c-0.1,0-0.3,0.1-0.6,0.2c-0.3,0.1-0.7,0.1-1,0.2l-1.5,0.1l-0.5,1
	c-0.1,0.2-0.2,0.4-0.3,0.6c-0.1,0.2-0.2,0.3-0.2,0.4c0,0.1-0.1,0.3-0.2,0.6c-0.1,0.3-0.3,0.5-0.3,0.7c-0.1,0.3-0.2,0.5-0.3,0.8
	c-0.1,0.2-0.2,0.4-0.3,0.5c-0.1,0-0.1,0-0.1,0.1c0,0,0,0.1,0,0.1l0.1,0.2c0,0.1,0,0.2-0.1,0.3c-0.1,0-0.1,0.1-0.2,0.2
	c-0.1,0.1-0.1,0.2-0.1,0.2c0,0,0.1,0.1,0.1,0.1c0,0.1-0.1,0.3-0.2,0.5c0,0.3-0.1,0.8-0.4,1.4c0,0.3,0,0.6,0.1,0.6
	c0,0.1,0.1,0.1,0.1,0.1h0.1l0.4,0c0.3-0.1,0.1,0.5-0.4,2l-0.4,0.8c0,0-0.1,0.1-0.2,0.3C269.2,64.3,269.1,64.4,269,64.4z M276.6,61.5
	c-0.3,0-0.5-0.1-0.6-0.2c-0.1-0.1-0.3-0.2-0.3-0.3c0-0.1-0.1-0.2-0.1-0.3c0-0.1,0.1-0.4,0.2-1l0.3-0.9c0.2-0.8,0.4-1.4,0.5-1.9
	c0.1-0.5,0.2-1,0.4-1.5c0.2-0.5,0.4-0.8,0.4-1c0.1-0.5,0.4-1.4,0.9-2.5l0.8-2.3c0.7-1.8,1-2.9,1.2-3.2l0.4-1.2
	c0-0.3,0.1-0.4,0.4-0.4c0.3,0,0.5,0.1,0.6,0.4c0.2,0.3,0.3,0.6,0.3,1c0,0.3-0.1,0.6-0.2,0.8c-0.3,0.6-0.6,1.3-0.9,2.1
	c-0.3,0.8-0.5,1.4-0.6,1.7c-0.6,1.8-1.1,3-1.4,3.6c0,0.1,0,0.2-0.1,0.4c-0.1,0.2-0.1,0.4-0.2,0.5l-0.3,0.6c0,0.1-0.1,0.4-0.3,1.2
	c-0.3,0.8-0.4,1.4-0.5,1.8c0.1-0.2,0.3-0.4,0.6-0.8c0.3-0.4,0.6-0.6,0.8-0.9c1-0.9,1.7-1.4,1.9-1.6c0.2-0.1,0.4-0.3,0.6-0.4
	c0.1-0.1,0.3-0.2,0.3-0.2c0-0.1,0.1-0.1,0.3-0.1c0.1,0,0.1,0,0.1,0c0,0,0-0.1,0-0.1c0-0.1,0.2-0.2,0.6-0.3c0.4-0.1,0.8-0.2,1.1-0.2
	c0.2,0,0.4,0,0.5,0.1c0.1,0.1,0.3,0.3,0.5,0.6c0.3,0.4,0.5,0.9,0.5,1.5c0,0.3-0.1,0.6-0.2,0.9c0,0.1,0,0.4-0.1,0.7
	c0,0.3-0.1,0.6-0.1,0.8l-0.2,0.9h0.4c0.1,0,0.3,0,0.4,0.1c0.1,0,0.2,0.1,0.3,0.1c0.2,0.2,0.3,0.3,0.4,0.3c0.2,0,0.3,0.1,0.3,0.2
	c0,0.1,0,0.2-0.1,0.3c-0.1,0.1-0.2,0.2-0.3,0.3c-0.5,0.3-0.9,0.4-1.2,0.4c-0.3,0-0.6-0.1-1-0.4c-0.4-0.4-0.6-0.9-0.6-1.5
	c0-0.3,0.1-0.7,0.2-1.1l0.1-0.9c0-0.4,0.1-0.7,0.1-0.8c0-0.4-0.1-0.6-0.3-0.6c-0.3,0-0.8,0.2-1.5,0.7c-0.7,0.4-1.5,1-2.3,1.7
	c-0.8,0.7-1.4,1.4-1.9,2c-0.3,0.4-0.5,0.6-0.7,0.8c-0.2,0.2-0.4,0.3-0.5,0.3H276.6z"/>
</svg>
