<svg width="24" height="20" viewBox="0 0 24 20" fill="none" xmlns="http://www.w3.org/2000/svg">
<path d="M0.279053 17.3953C2.41859 18.7907 4.93022 19.5349 7.62789 19.5349C16.5581 19.5349 21.6744 12 21.3023 5.20927C22.2325 4.55811 23.0698 3.7209 23.7209 2.69765C22.8837 3.06974 21.9535 3.34881 20.9302 3.44183C21.9535 2.88369 22.6977 1.86044 23.0698 0.744158C22.1395 1.3023 21.1163 1.67439 20 1.95346C19.1628 1.02323 17.8605 0.465088 16.4651 0.465088C13.3953 0.465088 11.0698 3.34881 11.8139 6.41858C7.81394 6.13951 4.27905 4.27904 1.95347 1.3023C0.651146 3.53486 1.30231 6.32555 3.44184 7.7209C2.60463 7.7209 1.86045 7.53485 1.20929 7.16276C1.11626 9.39532 2.79068 11.4418 5.11626 11.9069C4.4651 12.093 3.72091 12.093 2.97673 12C3.53487 13.9535 5.30231 15.3488 7.44184 15.3488C5.39533 16.9302 2.8837 17.6744 0.279053 17.3953Z" fill="#515151"/>
</svg>
