<svg width="23" height="23" viewBox="0 0 23 23" fill="none" xmlns="http://www.w3.org/2000/svg">
<path d="M5.32929 7.79028H0.747986V22.5363H5.32929V7.79028Z" fill="#515151"/>
<path d="M2.9919 5.9354C4.48783 5.9354 5.70328 4.72975 5.70328 3.24588C5.70328 1.76201 4.48783 0.463623 2.9919 0.463623C1.49596 0.463623 0.280518 1.66927 0.280518 3.15314C0.280518 4.63701 1.49596 5.9354 2.9919 5.9354Z" fill="#515151"/>
<path d="M12.7155 14.8385C12.7155 12.7982 13.6504 11.4998 15.5204 11.4998C17.2033 11.4998 18.0447 12.7055 18.0447 14.8385C18.0447 16.9716 18.0447 22.5361 18.0447 22.5361H22.626C22.626 22.5361 22.626 17.1571 22.626 13.2619C22.626 9.36677 20.3821 7.41919 17.2033 7.41919C14.0244 7.41919 12.7155 9.83048 12.7155 9.83048V7.79016H8.32117V22.5361H12.7155C12.7155 22.5361 12.7155 17.0644 12.7155 14.8385Z" fill="#515151"/>
</svg>
