<?xml version="1.0" encoding="utf-8"?>
<!-- Generator: Adobe Illustrator 24.1.0, SVG Export Plug-In . SVG Version: 6.00 Build 0)  -->
<svg version="1.1" id="Layer_1" xmlns="http://www.w3.org/2000/svg" xmlns:xlink="http://www.w3.org/1999/xlink" x="0px" y="0px"
	 viewBox="0 0 191 40" style="enable-background:new 0 0 191 40;" xml:space="preserve">
<style type="text/css">
	.st0{fill:#515151;}
</style>
<path class="st0" d="M26.8,31.8L22.6,39L1,1.7h8.3C15.1,11.8,21,21.8,26.8,31.8z"/>
<path class="st0" d="M34.2,39L12.4,1.7c2.8,0,5.6,0,8.4,0c5.8,10,11.7,20.1,17.5,30.1L34.2,39z"/>
<path class="st0" d="M34.2,39L55.8,1.7c-2.8,0-5.6,0-8.4,0c-5.8,10-11.5,20.1-17.3,30.1L34.2,39z"/>
<path class="st0" d="M32.9,18.9L43.1,1.7h-8.3l-6,10L32.9,18.9z"/>
<path class="st0" d="M51.5,1.7h-16v7.2h16V1.7z"/>
<g>
	<path class="st0" d="M55.4,16.7h3.4l2.3,8.7l0.6,3.5h0.1l0.7-3.5l2.3-8.7h3.4l2.4,8.7l0.7,3.5h0.1l0.7-3.5l2.2-8.7h3.3L73,31.3
		h-3.7L67,22.7l-0.7-3.6l-0.7,3.6l-2.4,8.6h-3.6L55.4,16.7z"/>
	<path class="st0" d="M81.6,13c-0.6,0-1-0.2-1.3-0.5s-0.5-0.8-0.5-1.3c0-0.5,0.2-0.9,0.5-1.3c0.3-0.3,0.8-0.5,1.3-0.5
		c0.5,0,1,0.2,1.3,0.5c0.3,0.3,0.5,0.8,0.5,1.3c0,0.5-0.2,1-0.5,1.3C82.6,12.9,82.1,13,81.6,13z M80,31.3V16.7h3.2v14.6H80z"/>
	<path class="st0" d="M96,19.6c-0.7-0.3-1.3-0.5-1.8-0.7s-1.1-0.2-1.7-0.2c-0.9,0-1.5,0.2-2,0.5c-0.4,0.3-0.7,0.7-0.7,1.3
		c0,0.4,0.2,0.8,0.5,1.1c0.3,0.3,1,0.6,2,0.9l0.9,0.3c1.3,0.4,2.4,1,3.1,1.6c0.7,0.7,1,1.6,1,2.7c0,1.4-0.5,2.5-1.5,3.3
		s-2.4,1.3-4.2,1.3c-1,0-1.9-0.1-2.7-0.3c-0.8-0.2-1.6-0.4-2.2-0.7l0.7-2.4c0.6,0.3,1.2,0.5,1.9,0.7c0.7,0.2,1.4,0.3,2.1,0.3
		c0.9,0,1.6-0.2,2.1-0.5c0.5-0.3,0.7-0.8,0.7-1.4c0-0.6-0.2-1-0.7-1.3c-0.4-0.3-1.1-0.5-2.1-0.8l-1-0.3c-1.3-0.4-2.3-1-2.9-1.6
		c-0.6-0.7-0.9-1.5-0.9-2.6c0-0.6,0.1-1.2,0.4-1.7c0.3-0.5,0.6-1,1.1-1.3s1-0.7,1.7-0.9c0.7-0.2,1.4-0.3,2.2-0.3
		c0.8,0,1.5,0.1,2.3,0.2c0.8,0.1,1.5,0.4,2.2,0.7L96,19.6z"/>
	<path class="st0" d="M103.7,31.3h-3.2v-22h3.2v9.1c0.7-0.5,1.4-1,2.2-1.4c0.8-0.4,1.7-0.6,2.7-0.6c0.8,0,1.5,0.1,2.2,0.4
		s1.1,0.6,1.5,1s0.7,1,0.9,1.5c0.2,0.6,0.3,1.3,0.3,2v10h-3.2V22c0-1.1-0.2-1.9-0.7-2.4c-0.5-0.5-1.1-0.7-2-0.7
		c-0.6,0-1.3,0.2-2,0.5c-0.7,0.3-1.3,0.8-1.9,1.3V31.3z"/>
	<path class="st0" d="M122.8,16.7h3.4l2.3,8.7l0.6,3.5h0.1l0.7-3.5l2.3-8.7h3.4l2.4,8.7l0.7,3.5h0.1l0.7-3.5l2.2-8.7h3.3l-4.3,14.6
		h-3.7l-2.3-8.6l-0.7-3.6l-0.7,3.6l-2.4,8.6h-3.6L122.8,16.7z"/>
	<path class="st0" d="M160.6,23.8c0,1.2-0.2,2.3-0.6,3.3c-0.4,1-0.9,1.8-1.6,2.4c-0.7,0.7-1.4,1.2-2.3,1.5s-1.8,0.5-2.9,0.5
		c-1,0-2-0.2-2.9-0.5c-0.9-0.3-1.6-0.8-2.3-1.4c-0.7-0.6-1.2-1.4-1.5-2.3s-0.5-2-0.5-3.2c0-1.2,0.2-2.3,0.6-3.3
		c0.4-1,0.9-1.8,1.6-2.4c0.7-0.7,1.4-1.2,2.3-1.5c0.9-0.3,1.8-0.5,2.9-0.5c1,0,2,0.2,2.9,0.5c0.9,0.3,1.6,0.8,2.3,1.4
		c0.7,0.6,1.2,1.4,1.5,2.3C160.5,21.6,160.6,22.6,160.6,23.8z M157.3,24c0-0.9-0.1-1.7-0.3-2.4s-0.5-1.2-0.9-1.6
		c-0.4-0.4-0.8-0.7-1.3-0.9s-1-0.3-1.5-0.3c-0.5,0-1,0.1-1.5,0.2c-0.5,0.2-0.9,0.4-1.3,0.8s-0.7,0.9-0.9,1.6
		c-0.2,0.7-0.3,1.5-0.3,2.5c0,0.9,0.1,1.7,0.3,2.4c0.2,0.7,0.5,1.2,0.9,1.6s0.8,0.7,1.3,0.9s1,0.3,1.5,0.3s1-0.1,1.5-0.2
		s0.9-0.5,1.3-0.9c0.4-0.4,0.7-0.9,0.9-1.6C157.2,25.8,157.3,25,157.3,24z"/>
	<path class="st0" d="M163.8,31.3V16.7h2.4l0.5,2.8c0.4-0.9,0.9-1.6,1.7-2.2c0.8-0.6,1.7-0.9,2.9-0.9c0.5,0,0.9,0,1.3,0.1
		c0.4,0.1,0.7,0.2,1,0.3l-0.6,2.7c-0.2-0.1-0.5-0.2-0.9-0.3c-0.3-0.1-0.7-0.1-1.1-0.1c-1.1,0-2.1,0.4-2.9,1.2s-1.1,1.9-1.1,3.5v7.5
		H163.8z"/>
	<path class="st0" d="M178.8,26.1v5.2h-3.2v-22h3.2v13.5l5.5-6.1h3.9l-5.9,6.2l6.2,8.5h-3.8l-4.6-6.6L178.8,26.1z"/>
</g>
</svg>
